<svg width="22" height="24" viewBox="0 0 22 24" fill="none" xmlns="http://www.w3.org/2000/svg">
<path d="M2.41172 24H19.2117C20.5353 24 21.6117 22.9236 21.6117 21.6V4.8C21.6117 3.4764 20.5353 2.4 19.2117 2.4H16.8117V0H14.4117V2.4H7.21172V0H4.81172V2.4H2.41172C1.08812 2.4 0.0117188 3.4764 0.0117188 4.8V21.6C0.0117188 22.9236 1.08812 24 2.41172 24ZM19.2117 7.2L19.2129 21.6H2.41172V7.2H19.2117Z" fill="#333333"/>
<path d="M4.81172 10.8003H7.21172V13.2003H4.81172V10.8003ZM4.81172 15.6003H7.21172V18.0003H4.81172V15.6003ZM9.61172 10.8003H12.0117V13.2003H9.61172V10.8003ZM9.61172 15.6003H12.0117V18.0003H9.61172V15.6003ZM14.4117 10.8003H16.8117V13.2003H14.4117V10.8003ZM14.4117 15.6003H16.8117V18.0003H14.4117V15.6003Z" fill="#333333"/>
</svg>
