<svg width="25" height="24" viewBox="0 0 25 24" fill="none" xmlns="http://www.w3.org/2000/svg">
<g clip-path="url(#clip0_160_338)">
<path d="M21.1959 6.0526H20.5906V13.317C20.5906 14.6485 19.5096 15.7295 18.1817 15.7368H6.0643V16.3421C6.0643 17.3432 6.87898 18.1579 7.88009 18.1579H16.5559L23.0117 23V7.86839C23.0117 6.86728 22.197 6.0526 21.1959 6.0526Z" fill="#333333"/>
<path d="M16.9591 14.5263H17.5643C18.5655 14.5263 19.3801 13.7116 19.3801 12.7105V1.81579C19.3801 0.814688 18.5655 3.8147e-06 17.5643 3.8147e-06H1.82751C0.826403 3.8147e-06 0.0117188 0.814688 0.0117188 1.81579V19.3684L6.46746 14.5263H16.9591ZM5.66124 12.1053L2.43277 14.5263V2.42106H16.9591V12.1053H5.66124Z" fill="#333333"/>
</g>
<defs>
<clipPath id="clip0_160_338">
<rect width="24" height="24" fill="white" transform="translate(0.0117188)"/>
</clipPath>
</defs>
</svg>
