<svg width="20" height="22" viewBox="0 0 20 22" fill="none" xmlns="http://www.w3.org/2000/svg">
<path fill-rule="evenodd" clip-rule="evenodd" d="M6.86649 3.718V5.81135C7.96482 6.05238 8.94461 6.59886 9.69173 7.3583C10.4249 6.61312 11.3819 6.07306 12.4553 5.82525V3.718C12.2504 2.52323 10.9815 1.76 9.66084 1.76C8.34014 1.76 7.07135 2.52323 6.86649 3.718ZM14.2153 5.68894V3.65007C14.2153 3.60871 14.2123 3.56735 14.2065 3.52634C13.859 1.08047 11.4692 0 9.66084 0C7.85253 0 5.46271 1.08047 5.1152 3.52634C5.10939 3.56735 5.10648 3.60871 5.10648 3.65007V5.69369C2.30394 5.92285 0.0117188 8.1181 0.0117188 10.9131C0.0117188 13.4243 1.37537 15.5181 3.06532 17.2394C4.6414 18.8447 6.60909 20.2321 8.28593 21.4145C8.40675 21.4997 8.52617 21.5839 8.64374 21.6669C9.27162 22.1106 10.1114 22.1117 10.7403 21.6661C10.8007 21.6232 10.8618 21.5799 10.9234 21.5364C12.5846 20.3598 14.6288 18.912 16.272 17.2319C17.9681 15.4978 19.3717 13.3823 19.3717 10.9131C19.3717 8.09759 17.0457 5.89073 14.2153 5.68894ZM5.59172 7.4339C3.41847 7.4339 1.77172 9.05275 1.77172 10.9131C1.77172 12.751 2.76674 14.4231 4.32117 16.0063C5.78074 17.4929 7.62417 18.7936 9.32838 19.9959C9.43943 20.0742 9.54979 20.1521 9.65943 20.2296C9.67941 20.2437 9.70423 20.2431 9.72262 20.2301C9.76899 20.1972 9.81563 20.1642 9.86245 20.131C11.5543 18.9324 13.4843 17.5651 15.0138 16.0012C16.5937 14.386 17.6117 12.6945 17.6117 10.9131C17.6117 9.05275 15.965 7.4339 13.7917 7.4339C12.33 7.4339 11.0854 8.17846 10.4443 9.23631C10.2849 9.49952 9.99947 9.6603 9.69173 9.6603C9.38399 9.6603 9.09861 9.49952 8.93915 9.23631C8.29807 8.17846 7.05349 7.4339 5.59172 7.4339ZM9.87697 12.9756C9.49778 12.9756 9.1823 13.286 9.1823 13.679C9.1823 14.0719 9.49778 14.3823 9.87697 14.3823C10.2562 14.3823 10.5717 14.0719 10.5717 13.679C10.5717 13.286 10.2562 12.9756 9.87697 12.9756ZM7.4223 13.679C7.4223 12.323 8.51675 11.2156 9.87697 11.2156C11.2372 11.2156 12.3317 12.323 12.3317 13.679C12.3317 14.7254 11.6798 15.6239 10.757 15.9795V17.3734C10.757 17.8594 10.363 18.2534 9.87697 18.2534C9.39095 18.2534 8.99697 17.8594 8.99697 17.3734V15.9795C8.07411 15.6239 7.4223 14.7254 7.4223 13.679Z" fill="#333333"/>
</svg>
